# xmcd
#
# Track frame offsets:
#	200
#	18287
#	31707
#	50617
#	68605
#	85295
#	101402
#	119112
#	133520
#	151077
#	168290
#
# Disc length: 2434 seconds
#
# Revision: 0
# Processed by: cddbd v1.4PL0 Copyright (c) Steve Scherf et al.
# Submitted via: EasyCDDAExtractor 5.0.0.0
#
DISCID=8109800b
DTITLE=O.C.Smith - Ater All is Said and Done
DYEAR=1993
DGENRE=Soul
TTITLE0=After All Is Said And Done
TTITLE1=Yes I Will
TTITLE2=Still In Love With You
TTITLE3=The Best Out Of Me
TTITLE4=As Long As I Have You
TTITLE5=I'm In Love
TTITLE6=Brenda
TTITLE7=The Wisest Of Us Are Fools For Love
TTITLE8=Friends
TTITLE9=I Could Write A Love Song
TTITLE10=You Saved Me
EXTD=
EXTT0=
EXTT1=
EXTT2=
EXTT3=
EXTT4=
EXTT5=
EXTT6=
EXTT7=
EXTT8=
EXTT9=
EXTT10=
PLAYORDER=
